<svg width="344" height="344" viewBox="0 0 344 344" fill="none" xmlns="http://www.w3.org/2000/svg">
<g clip-path="url(#clip0_2_40)">
<rect x="0.279297" width="343.04" height="343.04" rx="107" fill="url(#paint0_linear_2_40)"/>
<g filter="url(#filter0_d_2_40)">
<path d="M159 286C159 293.18 164.82 299 172 299C179.18 299 185 293.18 185 286H159ZM181.192 48.8076C176.116 43.7308 167.884 43.7308 162.808 48.8076L80.0761 131.539C74.9993 136.616 74.9993 144.847 80.0761 149.924C85.1529 155.001 93.3841 155.001 98.4609 149.924L172 76.3848L245.539 149.924C250.616 155.001 258.847 155.001 263.924 149.924C269.001 144.847 269.001 136.616 263.924 131.539L181.192 48.8076ZM185 286V58H159V286H185Z" fill="url(#paint1_linear_2_40)"/>
</g>
</g>
<defs>
<filter id="filter0_d_2_40" x="24.6685" y="-5.6" width="294.663" height="357.2" filterUnits="userSpaceOnUse" color-interpolation-filters="sRGB">
<feFlood flood-opacity="0" result="BackgroundImageFix"/>
<feColorMatrix in="SourceAlpha" type="matrix" values="0 0 0 0 0 0 0 0 0 0 0 0 0 0 0 0 0 0 127 0" result="hardAlpha"/>
<feOffset dy="1"/>
<feGaussianBlur stdDeviation="25.8"/>
<feComposite in2="hardAlpha" operator="out"/>
<feColorMatrix type="matrix" values="0 0 0 0 0 0 0 0 0 0 0 0 0 0 0 0 0 0 0.25 0"/>
<feBlend mode="normal" in2="BackgroundImageFix" result="effect1_dropShadow_2_40"/>
<feBlend mode="normal" in="SourceGraphic" in2="effect1_dropShadow_2_40" result="shape"/>
</filter>
<linearGradient id="paint0_linear_2_40" x1="171.799" y1="0" x2="171.799" y2="343.04" gradientUnits="userSpaceOnUse">
<stop stop-color="#08CF25"/>
<stop offset="1" stop-color="#20E763"/>
</linearGradient>
<linearGradient id="paint1_linear_2_40" x1="172.5" y1="58" x2="172.5" y2="286" gradientUnits="userSpaceOnUse">
<stop stop-color="white"/>
<stop offset="1" stop-color="#B0FFBB"/>
</linearGradient>
<clipPath id="clip0_2_40">
<rect x="0.279297" width="343.04" height="343.04" rx="107" fill="white"/>
</clipPath>
</defs>
</svg>
